<svg width="15" height="14" viewBox="0 0 15 14" fill="none" xmlns="http://www.w3.org/2000/svg">
<g clip-path="url(#clip0_13721_12222)">
<path d="M3.5 3V11C3.5 12.1046 4.39543 13 5.5 13H9.5C10.6046 13 11.5 12.1046 11.5 11V3C11.5 1.89543 10.6046 1 9.5 1H5.5C4.39543 1 3.5 1.89543 3.5 3Z" fill="#25324D"/>
<path fill-rule="evenodd" clip-rule="evenodd" d="M4.5 3V11C4.5 11.5523 4.94772 12 5.5 12H9.5C10.0523 12 10.5 11.5523 10.5 11V3C10.5 2.44772 10.0523 2 9.5 2H5.5C4.94772 2 4.5 2.44772 4.5 3ZM3.5 11V3C3.5 1.89543 4.39543 1 5.5 1H9.5C10.6046 1 11.5 1.89543 11.5 3V11C11.5 12.1046 10.6046 13 9.5 13H5.5C4.39543 13 3.5 12.1046 3.5 11Z" fill="#548AF7"/>
<path fill-rule="evenodd" clip-rule="evenodd" d="M0.5 3.5C0.5 3.22386 0.723858 3 1 3H3.49998V4H1C0.723858 4 0.5 3.77614 0.5 3.5ZM11.5 3H14C14.2761 3 14.5 3.22386 14.5 3.5C14.5 3.77614 14.2761 4 14 4H11.5V3ZM0.5 7C0.5 6.72386 0.723858 6.5 1 6.5H3.49998V7.5H1C0.723858 7.5 0.5 7.27614 0.5 7ZM11.5 6.5H14C14.2761 6.5 14.5 6.72386 14.5 7C14.5 7.27614 14.2761 7.5 14 7.5H11.5V6.5ZM0.5 10.5C0.5 10.2239 0.723858 10 1 10H3.49998V11H1C0.723858 11 0.5 10.7761 0.5 10.5ZM11.5 10H14C14.2761 10 14.5 10.2239 14.5 10.5C14.5 10.7761 14.2761 11 14 11H11.5V10Z" fill="#CED0D6"/>
</g>
<defs>
<clipPath id="clip0_13721_12222">
<rect width="14" height="14" fill="white" transform="translate(0.5)"/>
</clipPath>
</defs>
</svg>
