<svg fill="none" height="36" viewBox="0 0 36 36" width="36" xmlns="http://www.w3.org/2000/svg"><path d="m3.97072 3.5613h-1.18886l-2.7525631.7209v1.57385l2.7160031.63678h1.22542z" fill="#999"/><path d="m4 6.53135h-1.25471l-2.74529-.64295v-1.63778l2.77611-.72723 1.22389-.00061zm-3.94153-.7075 2.692.63108 1.19108-.00062v-2.85431h-1.15982l-2.72314.71378v1.50991z" fill="#171717"/><path d="m3.97072 7.14163h-1.18886l-2.7525631.72105v1.57385l2.7160031.63677h1.22542z" fill="#999"/><path d="m4 10.1118h-1.25471l-2.74529-.64307v-1.63779l2.77611-.72706 1.22389-.00062zm-3.94153-.70762 2.692.63122 1.19108-.0006v-2.8545h-1.15982l-2.72314.7137v1.51z" fill="#171717"/><path d="m3.97072 10.7221h-1.18886l-2.7525631.7209v1.5738l2.7160031.6368h1.22542z" fill="#999"/><path d="m4 13.6922h-1.25471l-2.74529-.643v-1.6379l2.77611-.7269 1.22389-.0008zm-3.94153-.7075 2.692.631 1.19108-.0006v-2.8545h-1.15982l-2.72314.714v1.5101z" fill="#171717"/><path d="m3.97072 14.3024h-1.18886l-2.7525631.7209v1.574l2.7160031.6368h1.22542z" fill="#999"/><path d="m4 17.2726h-1.25471l-2.74529-.643v-1.6378l2.77611-.7271 1.22389-.0008zm-3.94153-.7076 2.692.6312 1.19108-.0006v-2.8546h-1.15982l-2.72314.714v1.51z" fill="#171717"/><path d="m3.97072 17.8829h-1.18886l-2.7525631.7209v1.5739l2.7160031.6368h1.22542z" fill="#999"/><path d="m4 20.853h-1.25471l-2.74529-.643v-1.6378l2.77611-.727 1.22389-.0008zm-3.94153-.7075 2.692.6311 1.19108-.0006v-2.8545h-1.15982l-2.72314.714v1.51z" fill="#171717"/><path d="m3.97072 21.4633h-1.18886l-2.7525631.7209v1.574l2.7160031.6367h1.22542z" fill="#999"/><path d="m4 24.4335h-1.25471l-2.74529-.6431v-1.6378l2.77611-.7271 1.22389-.0008zm-3.94153-.7077 2.692.6312 1.19108-.0006v-2.8546h-1.15982l-2.72314.714v1.51z" fill="#171717"/><path d="m3.97072 25.0437h-1.18886l-2.7525631.7209v1.5739l2.7160031.6368h1.22542z" fill="#999"/><path d="m4 28.0138h-1.25471l-2.74529-.643v-1.6377l2.77611-.7271 1.22389-.0008zm-3.94153-.7075 2.692.6311 1.19108-.0006v-2.8545h-1.15982l-2.72314.714v1.51z" fill="#171717"/><path d="m3.97072 28.6241h-1.18886l-2.7525631.7209v1.574l2.7160031.6368h1.22542z" fill="#999"/><path d="m4 31.5943h-1.25471l-2.74529-.6431v-1.6378l2.77611-.7271 1.22389-.0007zm-3.94153-.7077 2.692.6311 1.19108-.0005v-2.8546h-1.15982l-2.72314.714v1.5101z" fill="#171717"/><path d="m32.0293 6.49285h1.2254l2.716-.63678v-1.57385l-2.7525-.7209h-1.1889z" fill="#999"/><path d="m32 3.5228 1.2239.00062 2.7761.72722v1.63778l-2.7453.64295h-1.2547zm3.9414 2.30091v-1.5099l-2.7231-.71381h-1.1598v2.85433l1.191.00062 2.6921-.63108z" fill="#171717"/><path d="m32.0293 10.0733h1.2254l2.716-.63675v-1.57384l-2.7525-.72106h-1.1889z" fill="#999"/><path d="m32 7.10328 1.2239.00062 2.7761.7271v1.63775l-2.7453.64305h-1.2547zm3.9414 2.30077v-1.51005l-2.7231-.71366h-1.1598v2.85446l1.191.0006 2.6921-.63118z" fill="#171717"/><path d="m32.0293 13.6537h1.2254l2.716-.6368v-1.5739l-2.7525-.7209h-1.1889z" fill="#999"/><path d="m32 10.6836 1.2239.0008 2.7761.7269v1.6379l-2.7453.643h-1.2547zm3.9414 2.3011v-1.5101l-2.7231-.714h-1.1598v2.8545l1.191.0006 2.6921-.6311z" fill="#171717"/><path d="m32.0293 17.2341h1.2254l2.716-.6367v-1.574l-2.7525-.7209h-1.1889z" fill="#999"/><path d="m32 14.2639 1.2239.0008 2.7761.7271v1.6378l-2.7453.6431h-1.2547zm3.9414 2.3011v-1.51l-2.7231-.714h-1.1598v2.8546l1.191.0007 2.6921-.6313z" fill="#171717"/><path d="m32.0293 20.8145h1.2254l2.716-.6368v-1.5739l-2.7525-.7209h-1.1889z" fill="#999"/><path d="m32 17.8444 1.2239.0008 2.7761.7271v1.6377l-2.7453.643h-1.2547zm3.9414 2.3011v-1.5101l-2.7231-.714h-1.1598v2.8546l1.191.0006 2.6921-.6311z" fill="#171717"/><path d="m32.0293 24.395h1.2254l2.716-.6368v-1.574l-2.7525-.7209h-1.1889z" fill="#999"/><path d="m32 21.4248 1.2239.0007 2.7761.7271v1.6378l-2.7453.6431h-1.2547zm3.9414 2.301v-1.51l-2.7231-.714h-1.1598v2.8546l1.191.0006 2.6921-.6312z" fill="#171717"/><path d="m32.0293 27.9753h1.2254l2.716-.6368v-1.5738l-2.7525-.7209h-1.1889z" fill="#999"/><path d="m32 25.0052 1.2239.0008 2.7761.7271v1.6378l-2.7453.6429h-1.2547zm3.9414 2.3011v-1.5101l-2.7231-.714h-1.1598v2.8545l1.191.0007 2.6921-.6311z" fill="#171717"/><path d="m32.0293 31.5558h1.2254l2.716-.6368v-1.574l-2.7525-.7209h-1.1889z" fill="#999"/><path d="m32 28.5856 1.2239.0007 2.7761.7271v1.6378l-2.7453.6431h-1.2547zm3.9414 2.301v-1.51l-2.7231-.714h-1.1598v2.8546l1.191.0005 2.6921-.6311z" fill="#171717"/><path d="m31.2806 0h-11.6873c.004.04841.0138.095.0138.14447.0107.217644-.023.435177-.099.639405s-.1927.390895-.3429.548685c-.1503.15779-.3311.28341-.5314.36924-.2003.08584-.4159.1301-.6338.1301s-.4335-.04426-.6338-.1301c-.2003-.08583-.3811-.21145-.5313-.36924-.1503-.15779-.267-.344457-.343-.548685-.0759-.204228-.1096-.421761-.099-.639405 0-.04951.0098-.09606.0138-.14447h-11.68727c-.46732.0116792-.91091.208381-1.2333.546897-.3224.338516-.49724.791163-.48613 1.258503v32.3892c-.01111.4673.16373.92.48613 1.2585.32239.3385.76598.5352 1.2333.5469h26.56117c.4673-.0117.9109-.2084 1.2333-.5469s.4972-.7912.4861-1.2585v-32.3892c.0111-.46734-.1637-.919987-.4861-1.258503s-.766-.5352178-1.2333-.546897z" fill="#1c1c1c"/><path d="m30.3952 3h-24.79039c-.88631 0-1.60481.7185-1.60481 1.60481v28.79039c0 .8863.7185 1.6048 1.60481 1.6048h24.79039c.8863 0 1.6048-.7185 1.6048-1.6048v-28.79039c0-.88631-.7185-1.60481-1.6048-1.60481z" fill="#c7c7c7"/><path d="m25.5686 9.58284s.4706-1.17549 1.2496-1.45923c.2433-.11245.5098-.16592.7776-.15608.2679.00984.5297.08272.7641.21272.1801.15374.3259.34361.428.5573.102.21369.158.44644.1644.68316-.1875.87959-.6274 1.68539-1.2659 2.31869l-2.1178-2.1564z" fill="#abc3d6"/><path d="m27.6872 11.9188-2.2648-2.30672.0303-.0757c.02-.05.5067-1.261 1.3288-1.56034.2703-.11609.564-.16728.8576-.14947.2937.01781.579.10413.8333.25204.1964.17133.3549.38179.4653.61792s.1702.4927.1757.7533c.0005 1.04377-1.2836 2.32127-1.3367 2.37637zm-1.9702-2.36336 1.9666 2.00236c.5836-.584.9815-1.3275 1.1436-2.13699-.0069-.21694-.0586-.43011-.1517-.62617-.0932-.19606-.2258-.3708-.3895-.51328-.2181-.11673-.4604-.18114-.7077-.18815-.2474-.007-.4929.04359-.7173.14779-.5208.29393-.9247.75796-1.144 1.31431z" fill="#1d1d1b"/><path d="m8.01288 11.8205c-.51147-.377-.88914-.9076-1.07794-1.5143-.16536-.53923-.1219-1.12096.12175-1.62966.15334-.2055.36077-.36435.59913-.45883.23837-.09448.4983-.12087.75079-.07623.58853.07517 1.82039 1.68408 1.82039 1.68408z" fill="#abc3d6"/><g fill="#1d1d1b"><path d="m8.02069 11.9818-.082-.0608c-.55974-.3761-.97547-.9308-1.17932-1.5736-.16682-.5814-.11189-1.20401.15413-1.74722.16905-.2293.398-.4076.66173-.51532.26372-.10772.55203-.1407.83327-.09532.622.07954 1.7966 1.53652 1.926 1.70553l.0622.14611zm.17655-3.72863c-.1972-.00225-.39236.0401-.5709.12389-.17853.08379-.33582.20684-.4601.35997-.22985.48409-.26842 1.03712-.108 1.54847.16436.5456.49677 1.0254.94984 1.371l2.04902-1.84603c-.38343-.4857-1.29568-1.48795-1.66624-1.545-.06413-.00904-.12886-.01315-.19362-.0123z"/><path d="m9.19882 10.7473c-.02332 0-.04618-.0065-.066-.0188l-1.20089-.74585c-.02859-.01682-.04932-.04431-.05765-.07642-.00832-.03211-.00354-.0662.01328-.09479s.04431-.04933.07641-.05765c.03211-.00832.06621-.00354.0948.01328l.00511.00317 1.20089.74586c.02323.0143.04116.0357.05105.0611.0099.0254.01121.0533.00374.0795-.00747.0263-.02332.0493-.04511.0657-.02179.0163-.04834.0251-.07559.0249z"/><path d="m8.87987 10.5495c-.03079 0-.06049-.0114-.0834-.032-.02291-.0205-.03742-.0488-.04074-.0794l-.10323-.95346c-.00321-.0328.00665-.06553.02744-.0911s.05083-.04189.0836-.04543c.03276-.00354.06559.00599.09137.02652.02577.02054.0424.05042.04627.08314l.10323.95343c.00351.033-.00624.0661-.02711.0919-.02086.0258-.05114.0423-.08415.0458l-.01315.0007z"/><path d="m26.6848 10.9906c-.0208 0-.0414-.0053-.0597-.0153s-.0338-.0244-.0452-.0419c-.0113-.0175-.0181-.0376-.0197-.0584s.002-.0417.0106-.0607l.6655-1.47564c.0068-.01498.0164-.02849.0283-.03975.012-.01126.0261-.02005.0414-.02587.0154-.00583.0318-.00857.0482-.00807.0164.00049.0326.00422.0475.01096.015.00675.0285.01637.0398.02834.0112.01196.02.02602.0259.04139.0058.01536.0085.03172.008.04814s-.0042.03258-.0109.04756l-.6656 1.47564c-.0099.0219-.026.0405-.0462.0536s-.0438.02-.0679.02z"/><path d="m28.0643 10.6581h-.0003l-1.2287-.0016c-.0331 0-.0649-.0132-.0883-.0366-.0235-.0235-.0366-.0553-.0366-.0884 0-.0332.0132-.065.0366-.0884.0235-.0234.0553-.0366.0885-.0366h.0004l1.2286.0016c.0332.0001.065.0133.0884.0367.0234.0235.0365.0553.0365.0885 0 .0331-.0132.0649-.0367.0883s-.0553.0366-.0884.0365z"/></g><path d="m6.08105 25.5163c-.20751-11.8157.97829-17.35696 11.05345-17.8289 12.0333-.01561 12.009 7.2657 12.2119 15.4044.2228 3.6845.2421 7.3785.058 11.0652l-23.27885.022s.01509-5.2719-.04447-8.6626z" fill="#abc3d6"/><path d="m10.9353 34.0695c-.082-1.0012.0002-2.009.2434-2.9836.9899-3.0323 3.3106-5.1403 6.4264-5.2375.8731-.0886 1.7543.0516 2.5568.407.8024.3554 1.4985.9137 2.0196 1.6198 1.3956 1.9297 1.8825 6.1943 1.8825 6.1943z" fill="#cddbe6"/><path d="m6.02229 34.2357s.00582.0527.16411.077.18859-.0548.18859-.0548c.0172-1.4136-.057-5.9331-.10614-8.7449-.10442-5.9309.13525-10.1875 1.649-13.0782 1.53281-2.92664 4.37795-4.33306 9.21675-4.56003h.0381c11.6126 0 11.7812 6.86733 11.9761 14.81753l.0102.4066c.2015 3.7065.1984 7.4214-.0094 11.1276 0 0 .0008.0908.1775.0908s.1989-.0908.1989-.0908c.2053-3.7102.208-7.4289.0081-11.1394l-.01-.4038c-.0983-4.0049-.1911-7.7874-1.7607-10.5834-1.7615-3.13776-5.1263-4.5999-10.597-4.5999l-.0408.00013c-9.93589.46546-11.44886 5.69317-11.23208 18.01927.04924 2.8107.14585 7.3107.12877 8.7163z" fill="#1d1d1b"/><path d="m15.6415 16.9203c-.2238 2.7758-1.8513 4.3214-5.1932 4.777-2.93766.4006-4.77102-2.4333-4.77102-5.2182 0-2.785 2.13035-5.4837 4.91752-5.4837.7371.0092 1.4638.176 2.1311.4892.6674.3133 1.26.7657 1.738 1.3269s.8304 1.2183 1.0336 1.9269c.2031.7087.2522 1.4526.144 2.1819z" fill="#fff"/><path d="m9.9 21.9226c-.94012.0028-1.84809-.342-2.54935-.9682-.60247-.577-1.07887-1.2726-1.39917-2.0428-.32031-.7703-.47757-1.5985-.46188-2.4326-.05409-1.4237.44886-2.8124 1.40207-3.8713.9532-1.0589 2.28159-1.7046 3.70313-1.7999.7164-.0001 1.4251.1477 2.0817.4342.6566.2864 1.2471.7052 1.7344 1.2303.5343.604.9363 1.3131 1.1805 2.0816.2442.7686.325 1.5797.2373 2.3813-.235 2.9097-1.9365 4.4818-5.3549 4.9478-.1901.0262-.3818.0395-.5738.0396zm.6948-10.7399c-2.51969 0-4.72985 2.4749-4.72985 5.2963-.01618.7806.12938 1.5561.42753 2.2777.29814.7216.74242 1.3736 1.30486 1.9151.38043.3389.83084.5898 1.31921.735.48838.1451 1.00272.1809 1.50645.1048 3.2144-.4382 4.8133-1.902 5.0315-4.6064.0833-.75.0089-1.5091-.2183-2.2287s-.6022-1.3838-1.101-1.95c-.4522-.4869-1-.8754-1.6092-1.141-.6091-.2657-1.2665-.4028-1.9311-.4028z" fill="#1d1d1b"/><path d="m30.2796 16.9203c-.224 2.7758-1.5953 5.1393-4.9708 4.8151-1.3478-.0681-2.6179-.6517-3.5474-1.6301s-1.4473-2.2768-1.4462-3.6263c0-3.6677 2.1305-5.4837 4.9177-5.4837.7371.0092 1.4638.176 2.1311.4893.6674.3133 1.26.7657 1.738 1.3269s.8304 1.2182 1.0335 1.9269.2523 1.4526.1441 2.1819z" fill="#fff"/><path d="m25.9134 21.9527c-.2017 0-.4092-.0103-.6224-.0307-1.3957-.0687-2.7111-.6727-3.6728-1.6865-.9617-1.0137-1.4956-2.3592-1.4906-3.7565 0-3.4981 1.956-5.6712 5.1051-5.6712.7164 0 1.4251.1478 2.0817.4342.6567.2864 1.2471.7052 1.7345 1.2303.5342.604.9363 1.3131 1.1805 2.0816.2441.7686.325 1.5797.2373 2.3813-.0095.7653-.171 1.521-.4752 2.2233s-.7449 1.3371-1.2966 1.8675c-.7857.633-1.7731.962-2.7815.9267zm-.6807-10.77c-2.9173 0-4.7298 2.0294-4.7298 5.2963-.0025 1.3034.4975 2.5576 1.3959 3.5018s2.1262 1.5058 3.4281 1.5681c.5489.0842 1.1092.0559 1.6468-.0835.5376-.1393 1.0412-.3866 1.4801-.7269 1.0229-1.0167 1.6105-2.3913 1.6387-3.8333.0832-.75.0089-1.5091-.2183-2.2287s-.6022-1.3838-1.1011-1.95c-.4521-.487-1-.8754-1.6091-1.1411-.6092-.2656-1.2666-.4027-1.9312-.4027z" fill="#1d1d1b"/><path d="m11.4747 13.4195c.0276.315-.0696.6283-.2706.8724-.2011.2441-.4899.3996-.8044.4329-.1555.0001-.3095-.0305-.45318-.0899-.1437-.0595-.27429-.1466-.3843-.2566-.11001-.1099-.1973-.2404-.25688-.384-.05957-.1437-.09027-.2977-.09034-.4532.01484-.3363.15984-.6538.40436-.8852.24452-.2315.56944-.3589.90614-.3552.6542.0022.9492.465.9492 1.1188z" fill="#1d1d1b"/><path d="m26.2386 13.1207c-.0131.317-.146.6172-.3719.8399-.2259.2228-.528.3515-.8451.3601-.2596.0072-.5113-.089-.7-.2674-.1886-.1784-.2986-.4244-.3059-.6839-.0003-.0113-.0004-.0226-.0003-.0339.027-.3089.1582-.5994.3719-.824.2138-.2246.4974-.37.8046-.4124.1366-.0048.2728.0181.4004.0674.1275.0493.2437.1239.3415.2194.0979.0955.1753.2099.2277.3362s.0786.2619.0771.3986z" fill="#1d1d1b"/><path d="m10.3369 13.0729c-.002.0819-.0337.1603-.0891.2207s-.1308.0986-.2123.1075c-.16424.0262-.30121-.0667-.30121-.3282-.00344-.0835.02632-.1649.08278-.2264s.135-.0982.21843-.1019c.2527 0 .3318.1155.3014.3282z" fill="#fff"/><path d="m25.1427 12.5847c-.0335.1782-.0517.225-.2434.2554-.1643.0261-.3044.0061-.3044-.2554 0-.1813.0273-.3267.2617-.3267.2525 0 .3226.1321.2861.3267z" fill="#fff"/><path d="m19.0029 22.0225c-.0892 1.2404-.207 1.018-.9566 1.1643-.1362.0507-.2828.0671-.4268.048-.1441-.0191-.2812-.0733-.3995-.1577s-.2141-.1966-.2789-.3266c-.0649-.13-.0969-.274-.0933-.4193-.0682-1.3032.1145-1.2056.8859-1.2056.4905 0 .9913-.2179 1.184-.0976.204.1275.1522.0637.0852.9945z" fill="#fff"/><path d="m17.7259 23.2993c-.2453.0082-.4862-.0673-.6829-.2141-.1242-.1045-.2244-.2346-.2936-.3814s-.1058-.3068-.1073-.4691c-.0342-.6563-.0158-1.0266.1794-1.2303.1712-.1789.4133-.1769.7451-.1735l.1489.0008c.1971-.0067.3931-.0318.5856-.0748.2257-.0815.4733-.0795.6977.0057.2587.1604.2495.2647.2107.7033-.0106.1182-.0237.2691-.0379.4639-.0745 1.035-.1792 1.2035-.801 1.2865-.0877.0116-.1891.0254-.3069.0483-.1112.0224-.2244.034-.3378.0347zm-.8018-2.0044c-.101.292-.1168.6067-.0453.9073.0169.2656.1272.5167.3113.7089.1114.0821.2383.1408.3731.1723.1348.0316.2746.0353.4108.0112.1091-.0208.5125-.0864.6227-.1001.397-.0532.3725-1.8959.3725-1.8959s-1.9965.1455-2.0451.1963z" fill="#1d1d1b"/><path d="m19.3496 18.738c.4507.5924.9287.8905.9008 1.6783-.0487 1.3701-1.3683.4797-2.41.5837-.8114.0812-2.0529 1.0621-2.3774-.2918-.1665-.6943.9106-1.6.9106-1.7555.4444-.1749.9163-.2695 1.3937-.2796.7328 0 1.5823.0649 1.5823.0649z" fill="#ccbdac"/><path d="m16.2103 21.6075c-.1526.003-.3035-.0327-.4385-.104-.1312-.0824-.2431-.1922-.328-.322-.0848-.1297-.1405-.2762-.1634-.4296-.1395-.5817.404-1.2265.7286-1.6118.0664-.079.1476-.1752.1769-.2205l.1147-.1396c.4674-.185.9642-.2847 1.4669-.2942h1.5943l.2098.1468c.1089.0865.2119.1802.3083.2805.1908.2006.3387.4379.4346.6975s.1379.5361.1234.8125c.0094.1457-.0135.2918-.0672.4277-.0536.1359-.1367.2582-.2431.3583-.3197.2557-.793.167-1.2939.073-.319-.0762-.6469-.1083-.9746-.0954-.2344.0384-.464.1022-.6846.1902-.3069.1282-.6325.2061-.9642.2307zm.3054-2.509c-.0659.0998-.1394.1944-.2196.2831-.279.3311-.7459.8853-.6507 1.2828.0126.1017.0463.1995.0991.2874.0527.0878.1232.1635.2071.2224.2615.1431.6871-.0069 1.0987-.1511.2485-.0986.5072-.1689.7714-.2097.3633-.017.7272.0166 1.0811.1.4139.0776.8046.1508.9902.0028.0617-.0682.1086-.1484.1378-.2356.0292-.0871.04-.1794.0318-.271.0096-.2303-.0292-.4601-.1138-.6746-.0845-.2144-.213-.4088-.3772-.5706-.0976-.0926-.2045-.1749-.319-.2454-.2302-.0159-.8996-.0584-1.4852-.0584-.4275.0092-.8506.0896-1.2517.2379z" fill="#1d1d1b"/><path d="m19.2037 18.5677c0 .5045-.612.9892-1.3836.9892-.7714 0-1.3834-.4684-1.3834-.9729s.5072-.8756 1.2787-.8756c1.0094 0 1.4883.3549 1.4883.8593z" fill="#595755"/><path d="m17.8203 19.7444c-.8518 0-1.5714-.5314-1.5714-1.1604 0-.6259.603-1.0631 1.4666-1.0631 1.5547 0 1.6757.8013 1.6757 1.0468 0 .6379-.7196 1.1767-1.5709 1.1767zm-.1048-1.8486c-.6427 0-1.0912.2829-1.0912.6882 0 .3715.4911.7853 1.196.7853.6843 0 1.1957-.4231 1.1957-.8016 0-.4271-.4741-.6719-1.3005-.6719z" fill="#1d1d1b"/></svg>