<svg fill="none" height="16" viewBox="0 0 16 16" width="16" xmlns="http://www.w3.org/2000/svg" xmlns:xlink="http://www.w3.org/1999/xlink"><clipPath id="a"><path d="m0 0h15.9561v16h-15.9561z"/></clipPath><g clip-path="url(#a)"><g fill="#999"><path d="m2.95606 2.34908h-.89164l-2.06442.54068v1.18038l2.037.47759h.91906z"/><path d="m2.95606 5.38348h-.89164l-2.06442.54067v1.18039l2.037.47759h.91906z"/><path d="m2.95606 8.41787h-.89164l-2.06442.54068v1.18035l2.037.4776h.91906z"/><path d="m2.95606 11.4523h-.89164l-2.06442.5407v1.1804l2.037.4776h.91906z"/><path d="m13 4.54773h.9191l2.037-.47759v-1.18038l-2.0645-.54068h-.8916z"/><path d="m13 7.58213h.9191l2.037-.47759v-1.18039l-2.0645-.54067h-.8916z"/><path d="m13 10.6165h.9191l2.037-.4776v-1.18035l-2.0645-.54068h-.8916z"/><path d="m13 13.6509h.9191l2.037-.4776v-1.1803l-2.0645-.5407h-.8916z"/></g><path d="m13.8805 0h-5.19435c.00178.02151.00617.04221.00617.06421.00472.096733-.01025.193418-.04402.284189-.03376.090772-.08562.173739-.15241.243871-.06679.070131-.14713.125965-.23615.164115s-.18486.057822-.28171.057822c-.09684 0-.19268-.019672-.2817-.057822s-.16936-.093984-.23615-.164115c-.0668-.070132-.11865-.153099-.15241-.243871-.03377-.090771-.04875-.187456-.04403-.284189 0-.022.00439-.0427.00617-.06421h-5.19436c-.2077.00519105-.40485.0926143-.54813.243066-.14329.150451-.221.351627-.21606.559334v14.3952c-.00494.2077.07277.4089.21606.5593.14328.1505.34043.2379.54813.2431h11.80505c.2077-.0052.4048-.0926.5481-.2431.1433-.1504.221-.3516.216-.5593v-14.3952c.005-.207714-.0727-.408895-.216-.559348-.1433-.1504527-.3405-.23787138-.5482-.243052z" fill="#1c1c1c"/><path d="m2.6658 15h10.6245c.1809.0014.3551-.0691.484-.1961.129-.1269.2023-.2999.2037-.4809v-12.146c-.0014-.18098-.0747-.35397-.2037-.48093-.1289-.12696-.3031-.19749-.4841-.19607h-10.6244c-.18098-.00141-.3551.06912-.48408.19607-.12898.12696-.20225.29995-.20369.48093v12.146c.00144.181.07471.354.20369.4809.12898.127.3031.1975.48408.1961z" fill="#c7c7c7"/><path d="m10.7862 4.96555s.0474-.58017.359-.69367c.0973-.04498.2039-.06637.3111-.06244.1071.00394.2118.03309.3056.0851.072.06149.1304.13743.1712.22291s.0632.17858.0658.27328c.0002.40216-.5837.83437-.5837.83437l-.3974-.47876z" fill="#84b3d3"/><path d="m4.17959 5.6251s-.55093-.12123-.60625-.448c-.06614-.21571-.04876-.4484.0487-.65188.06135-.0822.14433-.14574.23968-.18353s.19932-.04834.30032-.03047c.23541.03007.58854.75149.58854.75149z" fill="#84b3d3"/><path d="m3.21462 11.3602c-.08301-4.7262.39131-6.94274 4.42139-7.13152 4.81329-.00624 4.80359 2.90629 4.88479 6.16172.0891 1.4738.0968 2.9514.0232 4.4261l-9.31156.0088s.006-2.1087-.01779-3.465z" fill="#84b3d3"/><path d="m5.15631 14.7815s.2777-3.2154 2.66791-3.2884c2.58358-.0408 2.58358 3.2884 2.58358 3.2884z" fill="#cddbe6"/><path d="m7.03879 7.92183c-.08952 1.11031-.74049 1.72857-2.07728 1.91079-1.17506.16024-1.90841-.97332-1.90841-2.08729-.01719-.54843.17763-1.08238.54396-1.49089.36632-.4085.87598-.66013 1.42304-.70258.29486.00368.58552.0704.85246.1957s.50398.30628.6952.53076c.19121.22449.33217.4873.41342.77077.08124.28348.10088.58105.05761.87274z" fill="#fff"/><path d="m12.894 7.92184c-.0896 1.11031-.6381 2.05573-1.9883 1.926-.5391-.02723-1.04712-.26068-1.41892-.65203-.37179-.39135-.57891-.91066-.57849-1.45047-.03835-.27779-.01572-.56059.06633-.82874.08204-.26815.22152-.5152.40874-.72397s.41768-.37424.67534-.4849c.2577-.11065.5363-.16384.8166-.15586.2949.00368.5856.07041.8525.19572.2669.1253.504.30627.6952.53076s.3321.48729.4134.77076c.0812.28347.1009.58104.0576.87273z" fill="#fff"/><path d="m8.47225 9.94143c-.0407.56607-.09445.46457-.43653.53137-.06216.0231-.12903.0306-.19477.0219s-.12834-.0335-.18232-.072c-.05397-.0385-.09768-.0897-.12729-.149-.02961-.0594-.04422-.1251-.04256-.1914-.0311-.59467.05225-.55016.40429-.55016.22382 0 .45235-.09941.54029-.04451.09313.05816.06945.02905.03889.4538z" fill="#fff"/><path d="m8.52201 8.64893c.18026.23694.37147.35621.3603.6713-.01948.54806-.54733.1919-.964.23351-.32456.03245-.82117.42482-.951-.11673-.0666-.27771.36426-.64.36426-.70222.17776-.06993.36651-.10778.55749-.1118.29312 0 .63292.02594.63292.02594z" fill="#ccbdac"/><path d="m8.46366 8.5808c0 .2018-.24478.39566-.55341.39566-.30857 0-.55336-.18734-.55336-.38914s.20286-.35024.51149-.35024c.40375 0 .59528.14198.59528.34372z" fill="#595755"/><path d="m4.75056 6.96074c.152 0 .27523-.12323.27523-.27523 0-.15201-.12323-.27523-.27523-.27523-.15201 0-.27523.12322-.27523.27523 0 .152.12322.27523.27523.27523z" fill="#1d1d1b"/><path d="m10.1687 6.95407c.1483 0 .2686-.12024.2686-.26856 0-.14833-.1203-.26856-.2686-.26856s-.26857.12023-.26857.26856c0 .14832.12027.26856.26857.26856z" fill="#1d1d1b"/></g></svg>