<svg xmlns="http://www.w3.org/2000/svg" width="16" height="16" fill="none" viewBox="0 0 16 16"><path fill="#9AA7B0" fill-opacity="0.8" d="M2 2.34909L0 2.88977V4.07016L2 4.54775V2.34909Z"/><path fill="#9AA7B0" fill-opacity="0.8" d="M2 5.38351L0 5.92419V7.10458L2 7.58217V5.38351Z"/><path fill="#9AA7B0" fill-opacity="0.8" d="M2 8.41791L0 8.95858V10.139L2 10.6166V8.41791Z"/><path fill="#9AA7B0" fill-opacity="0.8" d="M2 11.4523L0 11.993V13.1734L2 13.651V11.4523Z"/><g><path fill="#9AA7B0" fill-opacity="0.8" d="M14 4.54775L16 4.07016V2.88977L14 2.34909V4.54775Z"/><path fill="#9AA7B0" fill-opacity="0.8" d="M14 7.58217L16 7.10458V5.92419L14 5.38351L14 7.58217Z"/><path fill="#9AA7B0" fill-opacity="0.8" d="M14 10.6166L15.9999 10.139V8.95858L14 8.41791V10.6166Z"/><path fill="#9AA7B0" fill-opacity="0.8" d="M14 13.651L16 13.1734V11.993L14 11.4523L14 13.651Z"/></g><path fill="#231F20" fill-opacity="0.7" d="M13.3175 0H8.64278C8.64437 0.02151 8.64832 0.04221 8.64832 0.06421C8.65257 0.160943 8.63909 0.257628 8.6087 0.348399C8.57831 0.439171 8.53165 0.522138 8.47154 0.59227C8.41143 0.662401 8.33912 0.718235 8.25901 0.756385C8.1789 0.794535 8.09264 0.814207 8.00548 0.814207C7.91832 0.814207 7.83207 0.794535 7.75196 0.756385C7.67185 0.718235 7.59954 0.662401 7.53943 0.59227C7.47932 0.522138 7.43265 0.439171 7.40227 0.348399C7.37188 0.257628 7.3584 0.160943 7.36265 0.06421C7.36265 0.04221 7.3666 0.02151 7.36819 0H2.69344C2.50651 0.00519105 2.32909 0.0926143 2.20013 0.243066C2.07118 0.393517 2.00125 0.594693 2.00569 0.8024V15.1976C2.00126 15.4053 2.07119 15.6065 2.20015 15.7569C2.3291 15.9074 2.50652 15.9948 2.69344 16H13.3175C13.5045 15.9948 13.6819 15.9074 13.8109 15.7569C13.9398 15.6065 14.0097 15.4053 14.0053 15.1976V0.8024C14.0097 0.594689 13.9398 0.393511 13.8108 0.243059C13.6819 0.0926069 13.5045 0.00518583 13.3175 0Z"/><g><path fill="#ABC3D6" d="M12.9995 6.11784C12.9874 6.27543 12.9284 6.42619 12.8295 6.55164C12.7306 6.67708 12.5962 6.77176 12.4427 6.82405C12.2893 6.87635 12.1235 6.88399 11.9657 6.84604C11.8078 6.80809 11.6648 6.72621 11.5541 6.61042C11.4435 6.49463 11.37 6.34998 11.3427 6.1942C11.3154 6.03841 11.3354 5.87827 11.4004 5.7334C11.4654 5.58854 11.5724 5.46524 11.7084 5.37864C11.8444 5.29203 12.0035 5.24589 12.1661 5.24585C12.3955 5.25433 12.6121 5.3509 12.7683 5.51437C12.9245 5.67784 13.0077 5.89487 12.9995 6.11784V6.11784Z"/><path fill="#ABC3D6" d="M3.00055 6.11784C2.99236 6.3408 3.07549 6.55783 3.23172 6.7213C3.38796 6.88477 3.60453 6.98134 3.83392 6.98982C4.0604 6.97351 4.27215 6.87456 4.42669 6.71283C4.58122 6.5511 4.66711 6.33855 4.66711 6.11784C4.66711 5.89712 4.58122 5.68457 4.42669 5.52284C4.27215 5.36111 4.0604 5.26216 3.83392 5.24585C3.60453 5.25433 3.38796 5.3509 3.23172 5.51437C3.07549 5.67784 2.99236 5.89487 3.00055 6.11784V6.11784Z"/><path fill="#BADCF0" d="M12.0476 10.7277C12.0476 11.0701 12.0672 11.3926 12.0929 11.6887C12.0666 11.6887 12.15 14 12.1 15H3.92L3.9 13.5L3.91502 11.6887C3.93656 11.4072 3.95272 11.0936 3.95272 10.7277C3.93468 9.63344 3.85533 8.54094 3.71503 7.45505C3.71503 5.55448 5.50021 4 7.99995 4C10.4997 4 12.2853 5.55448 12.2853 7.45505C12.2853 7.45505 12.0476 9.48161 12.0476 10.7277Z"/><path fill="white" d="M7.74349 7.96274C7.74841 8.25946 7.66238 8.55089 7.49634 8.79993C7.3303 9.04898 7.09176 9.24438 6.81109 9.36125C6.53043 9.47812 6.22032 9.51118 5.92026 9.45622C5.6202 9.40126 5.34375 9.26077 5.12611 9.05263C4.90847 8.84448 4.75947 8.57811 4.69809 8.28741C4.63671 7.99671 4.66573 7.69483 4.78144 7.42021C4.89715 7.14558 5.09433 6.91063 5.34787 6.74527C5.60141 6.5799 5.89985 6.49159 6.20519 6.49159C6.6099 6.48844 6.99933 6.64166 7.28782 6.91755C7.5763 7.19344 7.74021 7.5694 7.74349 7.96274Z"/><path fill="white" d="M7.74349 7.96274C7.74841 8.25946 7.66238 8.55089 7.49634 8.79993C7.3303 9.04898 7.09176 9.24438 6.81109 9.36125C6.53043 9.47812 6.22032 9.51118 5.92026 9.45622C5.6202 9.40126 5.34375 9.26077 5.12611 9.05263C4.90847 8.84448 4.75947 8.57811 4.69809 8.28741C4.63671 7.99671 4.66573 7.69483 4.78144 7.42021C4.89715 7.14558 5.09433 6.91063 5.34787 6.74527C5.60141 6.5799 5.89985 6.49159 6.20519 6.49159C6.6099 6.48844 6.99933 6.64166 7.28782 6.91755C7.5763 7.19344 7.74021 7.5694 7.74349 7.96274Z"/><path fill="black" d="M6.99353 7.95835C6.9836 8.0883 6.93488 8.21261 6.85333 8.31605C6.77178 8.41948 6.66094 8.49753 6.53442 8.54064C6.40789 8.58376 6.27117 8.59005 6.14102 8.55875C6.01086 8.52745 5.89294 8.45993 5.80169 8.36445C5.71045 8.26897 5.64986 8.14969 5.62734 8.02123C5.60482 7.89278 5.62136 7.76073 5.67493 7.64127C5.7285 7.52182 5.81677 7.42015 5.92892 7.34874C6.04107 7.27732 6.17222 7.23926 6.3063 7.23923C6.49545 7.24629 6.67401 7.32596 6.80283 7.46076C6.93165 7.59556 7.00023 7.7745 6.99353 7.95835V7.95835Z"/><path fill="white" d="M11.137 7.96274C11.142 8.25946 11.0559 8.55089 10.8899 8.79994C10.7238 9.04899 10.4853 9.24438 10.2046 9.36125C9.92396 9.47812 9.61386 9.51118 9.31379 9.45621C9.01373 9.40125 8.73728 9.26075 8.51964 9.0526C8.302 8.84446 8.15301 8.57807 8.09164 8.28737C8.03027 7.99667 8.05929 7.69479 8.17501 7.42016C8.29073 7.14554 8.48792 6.9106 8.74147 6.74524C8.99502 6.57988 9.29346 6.49158 9.59881 6.49159C10.0035 6.48846 10.3929 6.64169 10.6814 6.91757C10.9699 7.19346 11.1338 7.56941 11.137 7.96274V7.96274Z"/><path fill="white" d="M11.137 7.96274C11.142 8.25946 11.0559 8.55089 10.8899 8.79994C10.7238 9.04899 10.4853 9.24438 10.2046 9.36125C9.92396 9.47812 9.61386 9.51118 9.31379 9.45621C9.01373 9.40125 8.73728 9.26075 8.51964 9.0526C8.302 8.84446 8.15301 8.57807 8.09164 8.28737C8.03027 7.99667 8.05929 7.69479 8.17501 7.42016C8.29073 7.14554 8.48792 6.9106 8.74147 6.74524C8.99502 6.57988 9.29346 6.49158 9.59881 6.49159C10.0035 6.48846 10.3929 6.64169 10.6814 6.91757C10.9699 7.19346 11.1338 7.56941 11.137 7.96274V7.96274Z"/><path fill="black" d="M10.3867 7.95835C10.3768 8.08832 10.3281 8.21265 10.2465 8.31608C10.1649 8.41952 10.0541 8.49758 9.92751 8.54068C9.80096 8.58378 9.66423 8.59005 9.53407 8.55872C9.4039 8.52739 9.28598 8.45983 9.19475 8.36431C9.10352 8.2688 9.04296 8.14948 9.02049 8.021C8.99801 7.89252 9.01461 7.76046 9.06824 7.64102C9.12186 7.52157 9.21019 7.41993 9.32239 7.34856C9.43459 7.27719 9.56578 7.23919 9.69987 7.23923C9.88896 7.24639 10.0674 7.3261 10.1962 7.46089C10.3249 7.59568 10.3934 7.77456 10.3867 7.95835Z"/><path fill="white" d="M7.5235 10.7276H8.47609V9.9801H7.5235V10.7276Z"/><path fill="#B7937F" d="M8.95247 9.73098C8.95247 10.0061 8.52598 10.2292 7.99987 10.2292C7.47416 10.2292 7.04767 10.0061 7.04767 9.73098C7.04767 9.45589 7.47416 9.23276 7.99987 9.23276C8.52596 9.23276 8.95247 9.45589 8.95247 9.73098Z"/><path fill="black" d="M8.47626 9.47347C8.47626 9.75341 8.25975 9.73099 7.99209 9.73099C7.7248 9.73099 7.5079 9.75341 7.5079 9.47347C7.503 9.40876 7.51189 9.34377 7.534 9.28255C7.55611 9.22134 7.59098 9.16521 7.63642 9.11768C7.68186 9.07015 7.73689 9.03224 7.79809 9.00632C7.85929 8.98039 7.92532 8.96701 7.99208 8.96701C8.05884 8.96701 8.12488 8.98039 8.18607 9.00632C8.24727 9.03224 8.3023 9.07015 8.34774 9.11768C8.39318 9.16521 8.42805 9.22134 8.45016 9.28255C8.47227 9.34377 8.48116 9.40876 8.47626 9.47347V9.47347Z"/><path fill="#B7937F" d="M12.9995 11.0658C12.9909 11.1784 12.9486 11.2861 12.878 11.3757C12.8073 11.4654 12.7113 11.533 12.6016 11.5704C12.492 11.6077 12.3735 11.6132 12.2607 11.586C12.1479 11.5589 12.0457 11.5004 11.9667 11.4176C11.8876 11.3349 11.8351 11.2315 11.8157 11.1202C11.7962 11.0089 11.8105 10.8945 11.857 10.7909C11.9034 10.6874 11.9799 10.5994 12.0771 10.5375C12.1743 10.4756 12.288 10.4427 12.4041 10.4427C12.568 10.4488 12.7227 10.5179 12.8343 10.6347C12.9459 10.7515 13.0053 10.9065 12.9995 11.0658Z"/><path fill="#B7937F" d="M4.19105 11.0658C4.19686 11.2251 4.13747 11.3801 4.02587 11.4969C3.91428 11.6137 3.7596 11.6828 3.59572 11.6889C3.43389 11.6773 3.28258 11.6066 3.17216 11.491C3.06174 11.3754 3.00037 11.2236 3.00037 11.0658C3.00037 10.9081 3.06174 10.7563 3.17216 10.6407C3.28258 10.5251 3.43389 10.4544 3.59572 10.4428C3.75958 10.4489 3.91425 10.518 4.02584 10.6347C4.13743 10.7515 4.19683 10.9065 4.19105 11.0658V11.0658Z"/></g></svg>